<?xml version="1.0" encoding="UTF-8"?>
<svg width="70px" height="77px" viewBox="0 0 70 77" version="1.1" xmlns="http://www.w3.org/2000/svg" xmlns:xlink="http://www.w3.org/1999/xlink">
    <!-- Generator: Sketch 47.1 (45422) - http://www.bohemiancoding.com/sketch -->
    <title>我的组合 copy</title>
    <desc>Created with Sketch.</desc>
    <defs>
        <polygon id="path-1" points="2.39039836e-18 0 0 77 70 77 70 0"></polygon>
    </defs>
    <g id="Page-1" stroke="none" stroke-width="1" fill="none" fill-rule="evenodd">
        <g id="亿书-copy-5" transform="translate(-141.000000, -772.000000)">
            <g id="我的组合-copy" transform="translate(141.000000, 772.000000)">
                <mask id="mask-2" fill="white">
                    <use xlink:href="#path-1"></use>
                </mask>
                <g id="Clip-2"></g>
                <path d="M69.6147802,15.8244466 L35.2724669,0.0598334746 C35.099319,-0.0199444915 34.900681,-0.0199444915 34.7279924,0.0598334746 L0.385679043,15.8244466 C0.150643318,15.932286 0,16.168721 0,16.4296228 L0,60.5704932 C0,60.8309311 0.150643318,61.0673661 0.385679043,61.1752055 L34.7279924,76.9407463 C34.8141071,76.9800555 34.9074554,77 35.0002296,77 C35.0931187,77 35.1858929,76.9800555 35.2724669,76.9407463 L69.614321,61.1752055 C69.8493567,61.0673661 70,60.8309311 70,60.5704932 L70,16.4296228 C70,16.168721 69.8493567,15.932286 69.6147802,15.8244466 Z M64.537113,17.7776153 L34.9980481,30.7683207 L5.75441399,18.1309343 L35.0051669,4.52774745 L64.537113,17.7776153 Z M37.4993931,71.0282482 L37.4993931,34.5523242 L66.0984299,21.65937 L66.0984299,58.2889361 L37.4993931,71.0282482 Z M32.9590816,34.2139636 L32.9590816,71.1147516 L4.35912619,58.198838 L4.35912619,21.656703 L33.0115541,33.9539894 C32.977912,34.0336514 32.9590816,34.1215463 32.9590816,34.2139636 Z" id="Fill-1" fill="#000000" mask="url(#mask-2)"></path>
            </g>
        </g>
    </g>
</svg>