<?xml version="1.0" encoding="UTF-8"?>
<svg width="70px" height="70px" viewBox="0 0 70 70" version="1.1" xmlns="http://www.w3.org/2000/svg" xmlns:xlink="http://www.w3.org/1999/xlink">
    <!-- Generator: Sketch 47.1 (45422) - http://www.bohemiancoding.com/sketch -->
    <title>金币-3 copy</title>
    <desc>Created with Sketch.</desc>
    <defs></defs>
    <g id="Page-1" stroke="none" stroke-width="1" fill="none" fill-rule="evenodd">
        <g id="亿书-copy-5" transform="translate(-717.000000, -776.000000)" fill="#000000">
            <path d="M752,846 C732.669857,846 717,830.330437 717,811 C717,791.669465 732.669857,776 752,776 C771.330535,776 787,791.669465 787,811 C787,830.330437 771.330535,846 752,846 Z M752,780.46892 C735.140974,780.46892 721.46892,794.137443 721.46892,811 C721.46892,827.86442 735.140974,841.532944 752,841.532944 C768.862557,841.532944 782.53108,827.86442 782.53108,811 C782.53108,794.137443 768.862557,780.46892 752,780.46892 Z M764.661776,822.169848 L754.23397,822.169848 L754.23397,829.617524 C754.23397,830.439693 753.567349,831.105922 752.746651,831.105922 L751.253349,831.105922 C750.433142,831.105922 749.766521,830.439693 749.766521,829.617524 L749.766521,822.169848 L739.341755,822.169848 C738.517624,822.169848 737.851396,821.503325 737.851396,820.681156 L737.851396,819.192758 C737.851396,818.369118 738.517624,817.702497 739.341755,817.702497 L749.766521,817.702497 L749.766521,810.25482 L739.341755,810.25482 C738.517624,810.25482 737.851396,809.5882 737.851396,808.766423 L737.851396,807.279594 C737.851396,806.452129 738.517624,805.785508 739.341755,805.785508 L742.639944,805.785508 L738.172888,798.239069 C737.851396,797.695436 738.179361,796.919558 738.904239,796.509307 L740.216787,795.774524 C740.943136,795.362606 741.795904,795.475295 742.113474,796.018929 L747.89347,805.788941 L756.106922,805.788941 L761.883094,796.018929 C762.207921,795.475295 763.057257,795.362606 763.783704,795.774524 L765.096153,796.509307 C765.820639,796.919558 766.148997,797.695436 765.824072,798.239069 L761.360154,805.785508 L764.662168,805.785508 C765.482376,805.785508 766.148997,806.452129 766.148997,807.279594 L766.148997,808.766423 C766.148997,809.5882 765.482376,810.25482 764.662168,810.25482 L754.23397,810.25482 L754.23397,817.702497 L764.662168,817.702497 C765.482376,817.702497 766.148997,818.369118 766.148997,819.192758 L766.148997,820.681156 C766.148997,821.503325 765.482376,822.169848 764.661776,822.169848 Z" id="金币-3-copy"></path>
        </g>
    </g>
</svg>